<?xml version="1.0" encoding="UTF-8"?>
<svg width="40px" height="40px" viewBox="0 0 40 40" version="1.1" xmlns="http://www.w3.org/2000/svg" xmlns:xlink="http://www.w3.org/1999/xlink">
    <title>icon_arrow_back</title>
    <g id="Page-1" stroke="none" stroke-width="1" fill="none" fill-rule="evenodd">
        <g id="RSVP_01-Copy-4" transform="translate(-32.000000, -32.000000)">
            <g id="icon_arrow_back" transform="translate(32.000000, 32.000000)">
                <rect id="bg" opacity="0.08" x="0" y="0" width="40" height="40" rx="4"></rect>
                <path d="M19.7071068,13.2928932 C20.0675907,13.6533772 20.0953203,14.2206082 19.7902954,14.6128994 L19.7071068,14.7071068 L15.414,19 L27,19 C27.5522847,19 28,19.4477153 28,20 C28,20.5128358 27.6139598,20.9355072 27.1166211,20.9932723 L27,21 L15.415,21 L19.7071068,25.2928932 C20.0976311,25.6834175 20.0976311,26.3165825 19.7071068,26.7071068 C19.3466228,27.0675907 18.7793918,27.0953203 18.3871006,26.7902954 L18.2928932,26.7071068 L12.2928932,20.7071068 L12.2196888,20.625449 C12.2178869,20.6232039 12.2160946,20.6209509 12.2143117,20.6186899 L12.2928932,20.7071068 C12.2554172,20.6696307 12.2215374,20.6299202 12.191254,20.588404 C12.1752699,20.5663358 12.1602113,20.5438079 12.1460674,20.5206602 C12.1386069,20.5086131 12.1314988,20.4963944 12.1246712,20.4840621 C12.1137939,20.4642939 12.1033766,20.4438914 12.0936538,20.4230991 C12.085679,20.4060985 12.0781964,20.3887956 12.0712255,20.371336 C12.0633157,20.3515792 12.0561225,20.3317977 12.0495467,20.3117364 C12.0447287,20.2968513 12.0400977,20.2814633 12.0358451,20.265993 C12.0298336,20.2444365 12.0246398,20.2227461 12.0201652,20.2007941 C12.0167022,20.1833753 12.0136281,20.165949 12.0110178,20.1484669 C12.008101,20.1294204 12.005748,20.1096949 12.0039775,20.0898018 C12.001895,20.0659949 12.0006349,20.042681 12.0001861,20.0193545 C12.0000613,20.0129086 12,20.0064615 12,20 L12.0001675,19.9816379 C12.0005993,19.9579802 12.0018656,19.9343349 12.0039664,19.9107499 L12,20 C12,19.9493797 12.0037612,19.8996379 12.0110193,19.8510388 C12.0136281,19.834051 12.0167022,19.8166247 12.0202401,19.7992742 C12.0246398,19.7772539 12.0298336,19.7555635 12.035721,19.7341604 C12.0400977,19.7185367 12.0447287,19.7031487 12.0497381,19.6878575 C12.0561225,19.6682023 12.0633157,19.6484208 12.071104,19.6289415 C12.0781964,19.6112044 12.085679,19.5939015 12.0936734,19.5767785 C12.1033766,19.5561086 12.1137939,19.5357061 12.1248758,19.515723 C12.1314988,19.5036056 12.1386069,19.4913869 12.1459955,19.4792912 C12.1617187,19.453725 12.1784901,19.4288693 12.1963135,19.4048407 C12.2007179,19.3987914 12.2051745,19.3929267 12.2097046,19.3871006 C12.2387617,19.3503032 12.2650079,19.3207786 12.2928932,19.2928932 L18.2928932,13.2928932 C18.6834175,12.9023689 19.3165825,12.9023689 19.7071068,13.2928932 Z" id="Combined-Shape" fill="#FFF9F1"></path>
            </g>
        </g>
    </g>
</svg>