<?xml version="1.0" encoding="UTF-8"?>
<svg width="564px" height="243px" viewBox="0 0 564 243" version="1.1" xmlns="http://www.w3.org/2000/svg" xmlns:xlink="http://www.w3.org/1999/xlink">
    <title>jul2-4</title>
    <g id="Page-1" stroke="none" stroke-width="1" fill="none" fill-rule="evenodd">
        <g id="Desktop-HD-Copy-9" transform="translate(-795.000000, -418.000000)">
            <g id="jul2-4" transform="translate(795.000000, 418.000000)">
                <rect id="bg" x="0" y="0" width="564" height="243"></rect>
                <path d="M48.84,108.5 C55.14,105.98 57.66,102.76 67.46,92.82 C70.82,88.76 73.2,83.72 73.2,78.54 L73.2,10.36 L21.82,10.36 L21.82,19.74 L63.4,19.74 L63.4,87.92 C63.4,91.42 62.56,94.78 61.02,97.86 C56.68,99.96 51.78,100.8 47.02,99.82 C37.22,98 29.8,89.6 29.38,78.54 L20,87.92 C20,97.3 26.16,105.7 34.98,108.64 C39.46,110.04 44.36,110.04 48.84,108.5 Z M111.9,111.72 C121.28,110.6 126.32,106.68 140.6,91.14 L140.6,108.36 L150.12,108.36 L150.12,38.36 L140.6,38.36 L140.6,74.76 C140.6,82.88 137.8,90.02 133.18,97.86 C128.28,100.94 122.96,102.48 117.08,102.48 C105.992,102.48 103.685696,91.50288 103.640679,78.242519 L103.64,38.36 L93.98,38.36 L93.98,88.34 C94.68,103.04 96.36,113.96 111.9,111.72 Z M181.68,108.36 L181.68,3.22 L172.16,3.22 L172.16,108.36 L181.68,108.36 Z M212.82,21.84 C216.46,18.34 216.6,12.74 213.52,9.8 C210.3,6.72 204.98,6.86 201.34,10.36 C197.56,14 197.42,19.6 200.64,22.68 C203.72,25.62 209.04,25.48 212.82,21.84 Z M211.28,108.36 L211.28,38.36 L201.76,38.36 L201.76,108.36 L211.28,108.36 Z M333.34,108.36 L342.16,99.54 L289.66,99.54 C302.54,91.4344828 306.349631,88.8768609 314.428743,80.8320759 L315.142361,80.1184304 C317.07577,78.1770617 319.25954,75.9234483 321.86,73.22 C330.26,64.96 336.56,54.6 337.82,42.7 C339.64,26.18 329.14,12.04 313.46,9.1 C298.76,6.44 285.46,16.1 275.52,28.98 C266.14,41.16 267.68,58.94 278.6,69.02 C278.6675,69.0875 280.720223,67.0395982 282.828156,64.9004552 L283.530198,64.1868048 C285.548929,62.1314286 287.42,60.2 287.42,60.2 C277.06,50.54 274.96,35.56 282.8,22.26 C287.56,19.32 293.16,17.64 298.9,17.5 C313.6,17.5 326.2,27.58 328.72,42 C330.82,53.76 326.2,66.22 318.22,76.3 C309.12,85.4 296.1,92.12 282.24,99.54 L273.42,108.36 L333.34,108.36 Z M418.780312,72.9498437 L418.780312,62.8326562 L358.077187,62.8326562 L358.077187,72.9498437 L418.780312,72.9498437 Z M492.305859,108.36 L492.305859,76.16 L501.125859,76.16 L510.085859,67.2 L492.305859,67.2 L492.305859,10.36 L483.625859,10.36 L483.625859,67.2 L439.525859,67.2 C454.925859,46.76 466.685859,23.38 466.685859,-1.70530257e-13 L457.725859,8.96 C457.725859,31.08 446.105859,57.4 430.565859,76.16 L483.625859,76.16 L483.625859,108.36 L492.305859,108.36 Z M528.065859,129.5 L544.445859,96.46 L531.845859,96.46 L521.065859,129.5 L528.065859,129.5 Z M195.89293,240.36 L204.71293,231.54 L152.21293,231.54 C165.09293,223.434483 168.902561,220.876861 176.981673,212.832076 L177.69529,212.11843 C179.628699,210.177062 181.81247,207.923448 184.41293,205.22 C192.81293,196.96 199.11293,186.6 200.37293,174.7 C202.19293,158.18 191.69293,144.04 176.01293,141.1 C161.31293,138.44 148.01293,148.1 138.07293,160.98 C128.69293,173.16 130.23293,190.94 141.15293,201.02 C141.22043,201.0875 143.273153,199.039598 145.381086,196.900455 L146.083127,196.186805 C148.101858,194.131429 149.97293,192.2 149.97293,192.2 C139.61293,182.54 137.51293,167.56 145.35293,154.26 C150.11293,151.32 155.71293,149.64 161.45293,149.5 C176.15293,149.5 188.75293,159.58 191.27293,174 C193.37293,185.76 188.75293,198.22 180.77293,208.3 C171.67293,217.4 158.65293,224.12 144.79293,231.54 L135.97293,240.36 L195.89293,240.36 Z M251.39293,242.32 C263.29293,242.32 270.43293,235.32 281.35293,223.98 C293.39293,211.94 297.73293,192.76 294.37293,175.26 C290.87293,158.04 279.53293,142.64 263.57293,140.82 C256.01293,139.98 248.45293,142.78 242.71293,147.54 C240.47293,149.08 229.27293,160.42 226.61293,164.06 C218.63293,174.98 215.55293,190.38 217.37293,204.24 C219.75293,224.26 233.33293,242.32 251.39293,242.32 Z M260.91293,232.94 C235.57293,232.94 220.87293,199.48 228.15293,171.76 C229.55293,165.88 232.07293,160.28 235.43293,155.24 C247.19293,147.26 260.91293,148.66 271.13293,158.32 C283.17293,169.52 287.93293,188.7 285.41293,205.78 C284.01293,213.62 281.21293,221.46 276.59293,227.9 C271.97293,231.12 266.51293,232.94 260.91293,232.94 Z M371.57293,240.36 L380.39293,231.54 L327.89293,231.54 C340.77293,223.434483 344.582561,220.876861 352.661673,212.832076 L353.37529,212.11843 C355.308699,210.177062 357.49247,207.923448 360.09293,205.22 C368.49293,196.96 374.79293,186.6 376.05293,174.7 C377.87293,158.18 367.37293,144.04 351.69293,141.1 C336.99293,138.44 323.69293,148.1 313.75293,160.98 C304.37293,173.16 305.91293,190.94 316.83293,201.02 C316.90043,201.0875 318.953153,199.039598 321.061086,196.900455 L321.763127,196.186805 C323.781858,194.131429 325.65293,192.2 325.65293,192.2 C315.29293,182.54 313.19293,167.56 321.03293,154.26 C325.79293,151.32 331.39293,149.64 337.13293,149.5 C351.83293,149.5 364.43293,159.58 366.95293,174 C369.05293,185.76 364.43293,198.22 356.45293,208.3 C347.35293,217.4 334.33293,224.12 320.47293,231.54 L311.65293,240.36 L371.57293,240.36 Z M433.23293,240.36 L433.23293,141.24 L424.27293,150.2 L386.19293,202.14 L395.15293,193.32 L424.27293,153.42 L424.27293,240.36 L433.23293,240.36 Z" id="Juli2-4,2021" fill="#F9F4EC" fill-rule="nonzero"></path>
            </g>
        </g>
    </g>
</svg>