<?xml version="1.0" encoding="UTF-8"?>
<svg width="564px" height="243px" viewBox="0 0 564 243" version="1.1" xmlns="http://www.w3.org/2000/svg" xmlns:xlink="http://www.w3.org/1999/xlink">
    <title>jul2-4</title>
    <g id="Page-1" stroke="none" stroke-width="1" fill="none" fill-rule="evenodd">
        <g id="Desktop-HD-Copy-9" transform="translate(-795.000000, -418.000000)" fill="#F9F4EC" fill-rule="nonzero">
            <g id="jul2-4" transform="translate(795.000000, 418.000000)">
                <path d="M28.84,108.5 C35.14,105.98 37.66,102.76 47.46,92.82 C50.82,88.76 53.2,83.72 53.2,78.54 L53.2,10.36 L1.82,10.36 L1.82,19.74 L43.4,19.74 L43.4,87.92 C43.4,91.42 42.56,94.78 41.02,97.86 C36.68,99.96 31.78,100.8 27.02,99.82 C17.22,98 9.8,89.6 9.38,78.54 L0,87.92 C0,97.3 6.16,105.7 14.98,108.64 C19.46,110.04 24.36,110.04 28.84,108.5 Z M91.9,111.72 C101.28,110.6 106.32,106.68 120.6,91.14 L120.6,108.36 L130.12,108.36 L130.12,38.36 L120.6,38.36 L120.6,74.76 C120.6,82.88 117.8,90.02 113.18,97.86 C108.28,100.94 102.96,102.48 97.08,102.48 C85.992,102.48 83.685696,91.50288 83.6406787,78.242519 L83.64,38.36 L73.98,38.36 L73.98,88.34 C74.68,103.04 76.36,113.96 91.9,111.72 Z M161.68,108.36 L161.68,3.22 L152.16,3.22 L152.16,108.36 L161.68,108.36 Z M194.78,140.84 L204.3,131.18 L242.24,38.36 L236.5,38.36 L214.38,92.82 L190.16,38.36 L176.16,38.36 L207.38,108.36 L208.36,107.52 L194.78,140.84 Z M352.4,108.36 L361.22,99.54 L308.72,99.54 C321.6,91.4344828 325.409631,88.8768609 333.488743,80.8320759 L334.202361,80.1184304 C336.13577,78.1770617 338.31954,75.9234483 340.92,73.22 C349.32,64.96 355.62,54.6 356.88,42.7 C358.7,26.18 348.2,12.04 332.52,9.1 C317.82,6.44 304.52,16.1 294.58,28.98 C285.2,41.16 286.74,58.94 297.66,69.02 C297.7275,69.0875 299.780223,67.0395982 301.888156,64.9004552 L302.590198,64.1868048 C304.608929,62.1314286 306.48,60.2 306.48,60.2 C296.12,50.54 294.02,35.56 301.86,22.26 C306.62,19.32 312.22,17.64 317.96,17.5 C332.66,17.5 345.26,27.58 347.78,42 C349.88,53.76 345.26,66.22 337.28,76.3 C328.18,85.4 315.16,92.12 301.3,99.54 L292.48,108.36 L352.4,108.36 Z M437.840312,72.9498437 L437.840312,62.8326562 L377.137187,62.8326562 L377.137187,72.9498437 L437.840312,72.9498437 Z M511.365859,108.36 L511.365859,76.16 L520.185859,76.16 L529.145859,67.2 L511.365859,67.2 L511.365859,10.36 L502.685859,10.36 L502.685859,67.2 L458.585859,67.2 C473.985859,46.76 485.745859,23.38 485.745859,-1.70530257e-13 L476.785859,8.96 C476.785859,31.08 465.165859,57.4 449.625859,76.16 L502.685859,76.16 L502.685859,108.36 L511.365859,108.36 Z M547.125859,129.5 L563.505859,96.46 L550.905859,96.46 L540.125859,129.5 L547.125859,129.5 Z M195.42293,240.36 L204.24293,231.54 L151.74293,231.54 C164.62293,223.434483 168.432561,220.876861 176.511673,212.832076 L177.22529,212.11843 C179.158699,210.177062 181.34247,207.923448 183.94293,205.22 C192.34293,196.96 198.64293,186.6 199.90293,174.7 C201.72293,158.18 191.22293,144.04 175.54293,141.1 C160.84293,138.44 147.54293,148.1 137.60293,160.98 C128.22293,173.16 129.76293,190.94 140.68293,201.02 C140.75043,201.0875 142.803153,199.039598 144.911086,196.900455 L145.613127,196.186805 C147.631858,194.131429 149.50293,192.2 149.50293,192.2 C139.14293,182.54 137.04293,167.56 144.88293,154.26 C149.64293,151.32 155.24293,149.64 160.98293,149.5 C175.68293,149.5 188.28293,159.58 190.80293,174 C192.90293,185.76 188.28293,198.22 180.30293,208.3 C171.20293,217.4 158.18293,224.12 144.32293,231.54 L135.50293,240.36 L195.42293,240.36 Z M250.92293,242.32 C262.82293,242.32 269.96293,235.32 280.88293,223.98 C292.92293,211.94 297.26293,192.76 293.90293,175.26 C290.40293,158.04 279.06293,142.64 263.10293,140.82 C255.54293,139.98 247.98293,142.78 242.24293,147.54 C240.00293,149.08 228.80293,160.42 226.14293,164.06 C218.16293,174.98 215.08293,190.38 216.90293,204.24 C219.28293,224.26 232.86293,242.32 250.92293,242.32 Z M260.44293,232.94 C235.10293,232.94 220.40293,199.48 227.68293,171.76 C229.08293,165.88 231.60293,160.28 234.96293,155.24 C246.72293,147.26 260.44293,148.66 270.66293,158.32 C282.70293,169.52 287.46293,188.7 284.94293,205.78 C283.54293,213.62 280.74293,221.46 276.12293,227.9 C271.50293,231.12 266.04293,232.94 260.44293,232.94 Z M371.10293,240.36 L379.92293,231.54 L327.42293,231.54 C340.30293,223.434483 344.112561,220.876861 352.191673,212.832076 L352.90529,212.11843 C354.838699,210.177062 357.02247,207.923448 359.62293,205.22 C368.02293,196.96 374.32293,186.6 375.58293,174.7 C377.40293,158.18 366.90293,144.04 351.22293,141.1 C336.52293,138.44 323.22293,148.1 313.28293,160.98 C303.90293,173.16 305.44293,190.94 316.36293,201.02 C316.43043,201.0875 318.483153,199.039598 320.591086,196.900455 L321.293127,196.186805 C323.311858,194.131429 325.18293,192.2 325.18293,192.2 C314.82293,182.54 312.72293,167.56 320.56293,154.26 C325.32293,151.32 330.92293,149.64 336.66293,149.5 C351.36293,149.5 363.96293,159.58 366.48293,174 C368.58293,185.76 363.96293,198.22 355.98293,208.3 C346.88293,217.4 333.86293,224.12 320.00293,231.54 L311.18293,240.36 L371.10293,240.36 Z M432.76293,240.36 L432.76293,141.24 L423.80293,150.2 L385.72293,202.14 L394.68293,193.32 L423.80293,153.42 L423.80293,240.36 L432.76293,240.36 Z" id="July2-4,2021"></path>
            </g>
        </g>
    </g>
</svg>