<?xml version="1.0" encoding="UTF-8"?>
<svg width="567px" height="223px" viewBox="0 0 567 223" version="1.1" xmlns="http://www.w3.org/2000/svg" xmlns:xlink="http://www.w3.org/1999/xlink">
    <title>SaveTheDate</title>
    <g id="Page-1" stroke="none" stroke-width="1" fill="none" fill-rule="evenodd">
        <g id="Desktop-HD-Copy-9" transform="translate(-76.000000, -91.000000)" fill="#836F3C" fill-rule="nonzero">
            <g id="Group-8" transform="translate(0.000000, 91.000000)">
                <path d="M132.05,100.82 C132.898077,100.047308 133.758839,99.2568565 134.617942,98.4585504 L135.353575,97.7725954 C140.617907,92.8461095 145.665,87.73 147.17,84.72 C151.09,78 150.25,68.34 143.95,62.04 C137.65,56.02 127.71,53.08 115.25,49.86 L114.733636,49.7151699 L114.733636,49.7151699 L113.701602,49.4238148 C113.185992,49.2774871 112.671164,49.1300992 112.157901,48.9812679 L111.133695,48.6815676 C102.109076,46.015211 93.7359016,42.8186885 90.33,36.98 C87.39,32.08 87.95,26.06 90.75,20.46 C97.33,16.54 105.31,15 112.87,15.56 C121.13,16.12 129.53,19.62 134.29,26.76 C136.67,30.26 137.93,34.32 137.93,38.52 L147.03,29.56 C147.03,13.88 131.21,4.36 113.71,6.74 C107.41,7.58 101.81,9.82 96.63,13.6 C96.0028,14.1488 93.443824,16.629376 90.9445574,19.099415 L90.41064,19.62784 C90.056272,19.979072 89.7060256,20.3272576 89.3657069,20.6667341 L88.8634003,21.1687091 C87.712112,22.32144 86.718,23.3328 86.13,23.96 C80.81,29.7 78.15,36.14 79.83,42.44 C81.79,50.28 90.33,54.06 99.99,57.14 C118.47,62.6 121.97,62.74 129.53,67.08 C139.89,73.1 143.25,83.32 138.07,93.82 C130.51,98.44 121.13,99.7 112.45,98.44 C97.19,96.34 85.57,85.7 85.57,70.72 L76.47,79.82 C76.75,96.06 89.49,106.7 107.13,107.96 C115.81,108.38 125.05,106.42 132.05,100.82 Z M182.65,108.24 C191.47,107.4 196.23,103.76 206.31,91.44 L206.31,106 L215.97,106 L215.97,49.72 C215.97,40.48 210.09,34.88 200.71,33.2 C187.13,31.8 185.31,34.88 174.81,46.22 C170.19,51.26 165.43,61.2 162.35,70.3 L173.27,60.78 C174.81,56.3 178.59,46.78 180.27,42.86 C187.27,40.62 199.87,43.56 204.21,50.56 C205.75,53.22 206.31,56.3 206.31,59.38 L206.31,62.18 C196.063191,67.047234 189.097542,69.5707832 182.41114,72.3237142 L181.479664,72.7095917 C181.169574,72.8388864 180.859787,72.9689362 180.55,73.1 C176.07,74.92 165.29,85 163.75,88.5 C162.07,92.28 161.79,97.74 164.45,101.8 C168.37,107.4 176.21,108.8 182.65,108.24 Z M175.93,94.38 C172.71,91.3 171.31,86.54 172.29,82.06 C174.67,81.36 177.19,80.8 179.43,80.24 C185.45,78.7 191.47,76.74 196.37,72.96 C199.03,71 204.07,65.96 206.31,63.58 L206.31,89.48 C194.69,99.98 182.65,100.4 175.93,94.38 Z M270.21,106 L295.97,36 L289.95,36 L266.43,99.98 L242.91,36 L229.61,36 L255.51,106 L270.21,106 Z M333.69,107.68 C346.85,107.26 352.31,101.1 363.51,89.9 C358.75,94.66 349.93,97.88 342.79,98.02 C329.21,97.88 317.87,86.82 315.21,71.84 L359.31,71.84 L368.83,62.32 C368.97,52.8 365.61,43.28 357.91,37.4 C350.91,31.94 341.11,30.4 332.85,33.76 C327.39,35.72 321.79,41.32 314.23,49.58 C308.91,55.18 305.41,63.44 304.99,71.56 C304.43,91.44 315.49,107.68 333.69,107.68 Z M358.19,62.32 L314.65,62.32 C315.07,56.02 316.75,50.28 319.97,44.96 C325.29,41.74 331.59,40.76 338.73,42.3 C348.39,44.68 355.95,52.66 358.19,62.32 Z M458.27,106 L458.27,16.96 L490.61,16.96 L490.61,8 L416.13,8 L416.13,16.96 L448.47,16.96 L448.47,106 L458.27,106 Z M514.75,106 L514.75,69.74 C514.75,61.48 517.41,54.34 522.17,46.5 C527.07,43.42 532.81,41.74 538.27,42.02 C549.75,42.02 551.71,53.64 551.71,66.52 L551.71,106 L561.09,106 L561.23,56.16 C561.23,49.86 560.67,42.3 557.87,37.96 C554.93,32.78 549.75,31.8 543.45,32.64 C534.21,33.9 530.85,37.4 523.15,44.4 L522.462453,45.0877828 C521.830196,45.7206703 521.147118,46.4060578 520.456901,47.1047453 L519.938582,47.6306422 C517.606263,50.0028875 515.317,52.415 514.75,53.36 L514.75,0.72 L505.09,0.72 L505.09,106 L514.75,106 Z M607.49,107.68 C620.65,107.26 626.11,101.1 637.31,89.9 C632.55,94.66 623.73,97.88 616.59,98.02 C603.01,97.88 591.67,86.82 589.01,71.84 L633.11,71.84 L642.63,62.32 C642.77,52.8 639.41,43.28 631.71,37.4 C624.71,31.94 614.91,30.4 606.65,33.76 C601.19,35.72 595.59,41.32 588.03,49.58 C582.71,55.18 579.21,63.44 578.79,71.56 C578.23,91.44 589.29,107.68 607.49,107.68 Z M631.99,62.32 L588.45,62.32 C588.87,56.02 590.55,50.28 593.77,44.96 C599.09,41.74 605.39,40.76 612.53,42.3 C622.19,44.68 629.75,52.66 631.99,62.32 Z M250.96,220 C264.26,219.44 272.8,213.84 282.46,204.18 C293.24,193.82 299.96,185.42 301.08,170.44 C303.18,148.04 288.06,126.62 265.24,122.56 C260.9,121.86 256.42,122 252.08,122 L227.58,122 L227.58,220 L250.96,220 Z M246.697334,211.03904 L237.38,211.04 L237.38,211.04 L237.38,130.82 L249,130.82 C262.86,130.82 276.16,137.96 284.14,149.3 C289.6,157 292.54,166.38 292.4,175.9 C292.26,185.42 289.18,194.66 283.44,202.5 C276.72,207.54 268.74,210.48 260.34,210.9 C260.298,210.9028 260.256336,210.905544 260.214855,210.908233 L260.090804,210.916137 C260.07017,210.917427 260.049542,210.918704 260.028903,210.919968 L259.904769,210.92739 C258.596649,211.003674 257.089046,211.028282 250.58606,211.03622 L249.951471,211.036927 C249.843138,211.037036 249.733508,211.037142 249.622562,211.037244 L248.940938,211.037813 C248.82465,211.0379 248.707008,211.037984 248.587992,211.038065 L247.09264,211.03888 C246.962328,211.038936 246.830566,211.038989 246.697334,211.03904 L246.697334,211.03904 Z M334.74,222.24 C343.56,221.4 348.32,217.76 358.4,205.44 L358.4,220 L368.06,220 L368.06,163.72 C368.06,154.48 362.18,148.88 352.8,147.2 C339.22,145.8 337.4,148.88 326.9,160.22 C322.28,165.26 317.52,175.2 314.44,184.3 L325.36,174.78 C326.9,170.3 330.68,160.78 332.36,156.86 C339.36,154.62 351.96,157.56 356.3,164.56 C357.84,167.22 358.4,170.3 358.4,173.38 L358.4,176.18 C348.153191,181.047234 341.187542,183.570783 334.50114,186.323714 L333.569664,186.709592 C333.259574,186.838886 332.949787,186.968936 332.64,187.1 C328.16,188.92 317.38,199 315.84,202.5 C314.16,206.28 313.88,211.74 316.54,215.8 C320.46,221.4 328.3,222.8 334.74,222.24 Z M328.02,208.38 C324.8,205.3 323.4,200.54 324.38,196.06 C326.76,195.36 329.28,194.8 331.52,194.24 C337.54,192.7 343.56,190.74 348.46,186.96 C351.12,185 356.16,179.96 358.4,177.58 L358.4,203.48 C346.78,213.98 334.74,214.4 328.02,208.38 Z M404.52,221.96 C412.36,221.96 415.86,219.3 424.26,209.5 C420.62,212.02 416,213 410.54,212.16 C404.092432,210.413784 403.831045,206.476629 403.820448,197.133533 L403.82,159.66 L428.6,159.66 L438.12,150 L403.82,150 L403.82,128.3 L394.3,137.82 L394.3,150 L378.2,150 L378.2,159.66 L394.3,159.66 L394.3,210.2 C394.86,218.18 395.56,221.96 404.52,221.96 Z M464.36,221.68 C477.52,221.26 482.98,215.1 494.18,203.9 C489.42,208.66 480.6,211.88 473.46,212.02 C459.88,211.88 448.54,200.82 445.88,185.84 L489.98,185.84 L499.5,176.32 C499.64,166.8 496.28,157.28 488.58,151.4 C481.58,145.94 471.78,144.4 463.52,147.76 C458.06,149.72 452.46,155.32 444.9,163.58 C439.58,169.18 436.08,177.44 435.66,185.56 C435.1,205.44 446.16,221.68 464.36,221.68 Z M488.86,176.32 L445.32,176.32 C445.74,170.02 447.42,164.28 450.64,158.96 C455.96,155.74 462.26,154.76 469.4,156.3 C479.06,158.68 486.62,166.66 488.86,176.32 Z" id="SaveTheDate"></path>
            </g>
        </g>
    </g>
</svg>