<?xml version="1.0" encoding="UTF-8"?>
<svg width="140px" height="140px" viewBox="0 0 140 140" version="1.1" xmlns="http://www.w3.org/2000/svg" xmlns:xlink="http://www.w3.org/1999/xlink">
    <title>Group 86</title>
    <defs>
        <path d="M49.367,0 C24.969,7.38956522 6.002,27.5465217 0,52.8317391 L0,52.8317391 L0,87.1682609 C6.002,112.453478 24.969,132.610435 49.367,140 L49.367,140 L90.633,140 C115.031,132.610435 133.998,112.453478 140,87.1682609 L140,87.1682609 L140,52.8317391 C133.998,27.5465217 115.031,7.38956522 90.633,0 L90.633,0 L49.367,0 Z" id="path-1"></path>
        <path d="M49.367,1 C24.969,8.284 6.002,28.153 0,53.077 L0,53.077 L0,86.923 C6.002,111.847 24.969,131.716 49.367,139 L49.367,139 L90.633,139 C115.031,131.716 133.998,111.847 140,86.923 L140,86.923 L140,53.077 C133.998,28.153 115.031,8.284 90.633,1 L90.633,1 L49.367,1 Z" id="path-3"></path>
        <path d="M49.367,1 C24.969,8.284 6.002,28.153 0,53.077 L0,53.077 L0,86.923 C6.002,111.847 24.969,131.716 49.367,139 L49.367,139 L90.633,139 C115.031,131.716 133.998,111.847 140,86.923 L140,86.923 L140,53.077 C133.998,28.153 115.031,8.284 90.633,1 L90.633,1 L49.367,1 Z" id="path-5"></path>
        <path d="M49.367,1 C24.969,8.284 6.002,28.153 0,53.077 L0,53.077 L0,86.923 C6.002,111.847 24.969,131.716 49.367,139 L49.367,139 L90.633,139 C115.031,131.716 133.998,111.847 140,86.923 L140,86.923 L140,53.077 C133.998,28.153 115.031,8.284 90.633,1 L90.633,1 L49.367,1 Z" id="path-7"></path>
        <path d="M49.367,1 C24.969,8.284 6.002,28.153 0,53.077 L0,53.077 L0,86.923 C6.002,111.847 24.969,131.716 49.367,139 L49.367,139 L90.633,139 C115.031,131.716 133.998,111.847 140,86.923 L140,86.923 L140,53.077 C133.998,28.153 115.031,8.284 90.633,1 L90.633,1 L49.367,1 Z" id="path-9"></path>
        <path d="M49.367,1 C24.969,8.284 6.002,28.153 0,53.077 L0,53.077 L0,86.923 C6.002,111.847 24.969,131.716 49.367,139 L49.367,139 L90.633,139 C115.031,131.716 133.998,111.847 140,86.923 L140,86.923 L140,53.077 C133.998,28.153 115.031,8.284 90.633,1 L90.633,1 L49.367,1 Z" id="path-11"></path>
        <path d="M49.367,1 C24.969,8.284 6.002,28.153 0,53.077 L0,53.077 L0,86.923 C6.002,111.847 24.969,131.716 49.367,139 L49.367,139 L90.633,139 C115.031,131.716 133.998,111.847 140,86.923 L140,86.923 L140,53.077 C133.998,28.153 115.031,8.284 90.633,1 L90.633,1 L49.367,1 Z" id="path-13"></path>
        <path d="M49.367,1 C24.969,8.284 6.002,28.153 0,53.077 L0,53.077 L0,86.923 C6.002,111.847 24.969,131.716 49.367,139 L49.367,139 L90.633,139 C115.031,131.716 133.998,111.847 140,86.923 L140,86.923 L140,53.077 C133.998,28.153 115.031,8.284 90.633,1 L90.633,1 L49.367,1 Z" id="path-15"></path>
        <path d="M49.367,1 C24.969,8.284 6.002,28.153 0,53.077 L0,53.077 L0,86.923 C6.002,111.847 24.969,131.716 49.367,139 L49.367,139 L90.633,139 C115.031,131.716 133.998,111.847 140,86.923 L140,86.923 L140,53.077 C133.998,28.153 115.031,8.284 90.633,1 L90.633,1 L49.367,1 Z" id="path-17"></path>
        <path d="M49.367,1 C24.969,8.284 6.002,28.153 0,53.077 L0,53.077 L0,86.923 C6.002,111.847 24.969,131.716 49.367,139 L49.367,139 L90.633,139 C115.031,131.716 133.998,111.847 140,86.923 L140,86.923 L140,53.077 C133.998,28.153 115.031,8.284 90.633,1 L90.633,1 L49.367,1 Z" id="path-19"></path>
        <path d="M49.367,1 C24.969,8.284 6.002,28.153 0,53.077 L0,53.077 L0,86.923 C6.002,111.847 24.969,131.716 49.367,139 L49.367,139 L90.633,139 C115.031,131.716 133.998,111.847 140,86.923 L140,86.923 L140,53.077 C133.998,28.153 115.031,8.284 90.633,1 L90.633,1 L49.367,1 Z" id="path-21"></path>
        <path d="M49.367,1 C24.969,8.284 6.002,28.153 0,53.077 L0,53.077 L0,86.923 C6.002,111.847 24.969,131.716 49.367,139 L49.367,139 L90.633,139 C115.031,131.716 133.998,111.847 140,86.923 L140,86.923 L140,53.077 C133.998,28.153 115.031,8.284 90.633,1 L90.633,1 L49.367,1 Z" id="path-23"></path>
        <path d="M49.367,1 C24.969,8.284 6.002,28.153 0,53.077 L0,53.077 L0,86.923 C6.002,111.847 24.969,131.716 49.367,139 L49.367,139 L90.633,139 C115.031,131.716 133.998,111.847 140,86.923 L140,86.923 L140,53.077 C133.998,28.153 115.031,8.284 90.633,1 L90.633,1 L49.367,1 Z" id="path-25"></path>
        <path d="M49.367,1 C24.969,8.284 6.002,28.153 0,53.077 L0,53.077 L0,86.923 C6.002,111.847 24.969,131.716 49.367,139 L49.367,139 L90.633,139 C115.031,131.716 133.998,111.847 140,86.923 L140,86.923 L140,53.077 C133.998,28.153 115.031,8.284 90.633,1 L90.633,1 L49.367,1 Z" id="path-27"></path>
        <path d="M49.367,1 C24.969,8.284 6.002,28.153 0,53.077 L0,53.077 L0,86.923 C6.002,111.847 24.969,131.716 49.367,139 L49.367,139 L90.633,139 C115.031,131.716 133.998,111.847 140,86.923 L140,86.923 L140,53.077 C133.998,28.153 115.031,8.284 90.633,1 L90.633,1" id="path-29"></path>
        <path d="M49.367,1 C24.969,8.284 6.002,28.153 0,53.077 L0,53.077 L0,86.923 C6.002,111.847 24.969,131.716 49.367,139 L49.367,139 L90.633,139 C115.031,131.716 133.998,111.847 140,86.923 L140,86.923 L140,53.077 C133.998,28.153 115.031,8.284 90.633,1 L90.633,1 L49.367,1 Z" id="path-31"></path>
        <path d="M49.367,1 C24.969,8.284 6.002,28.153 0,53.077 L0,53.077 L0,86.923 C6.002,111.847 24.969,131.716 49.367,139 L49.367,139 L90.633,139 C115.031,131.716 133.998,111.847 140,86.923 L140,86.923 L140,53.077 C133.998,28.153 115.031,8.284 90.633,1 L90.633,1 L49.367,1 Z" id="path-33"></path>
        <path d="M49.367,1 C24.969,8.284 6.002,28.153 0,53.077 L0,53.077 L0,86.923 C6.002,111.847 24.969,131.716 49.367,139 L49.367,139 L90.633,139 C115.031,131.716 133.998,111.847 140,86.923 L140,86.923 L140,53.077 C133.998,28.153 115.031,8.284 90.633,1 L90.633,1" id="path-35"></path>
        <path d="M49.367,1 C24.969,8.284 6.002,28.153 0,53.077 L0,53.077 L0,86.923 C6.002,111.847 24.969,131.716 49.367,139 L49.367,139 L90.633,139 C115.031,131.716 133.998,111.847 140,86.923 L140,86.923 L140,53.077 C133.998,28.153 115.031,8.284 90.633,1 L90.633,1 L49.367,1 Z" id="path-37"></path>
        <path d="M49.367,1 C24.969,8.284 6.002,28.153 0,53.077 L0,53.077 L0,86.923 C6.002,111.847 24.969,131.716 49.367,139 L49.367,139 L90.633,139 C115.031,131.716 133.998,111.847 140,86.923 L140,86.923 L140,53.077 C133.998,28.153 115.031,8.284 90.633,1 L90.633,1" id="path-39"></path>
        <path d="M49.367,1 C24.969,8.284 6.002,28.153 0,53.077 L0,53.077 L0,86.923 C6.002,111.847 24.969,131.716 49.367,139 L49.367,139 L90.633,139 C115.031,131.716 133.998,111.847 140,86.923 L140,86.923 L140,53.077 C133.998,28.153 115.031,8.284 90.633,1 L90.633,1 L49.367,1 Z" id="path-41"></path>
        <path d="M49.367,1 C24.969,8.284 6.002,28.153 0,53.077 L0,53.077 L0,86.923 C6.002,111.847 24.969,131.716 49.367,139 L49.367,139 L90.633,139 C115.031,131.716 133.998,111.847 140,86.923 L140,86.923 L140,53.077 C133.998,28.153 115.031,8.284 90.633,1 L90.633,1 L49.367,1 Z" id="path-43"></path>
        <path d="M49.367,1 C24.969,8.284 6.002,28.153 0,53.077 L0,53.077 L0,86.923 C6.002,111.847 24.969,131.716 49.367,139 L49.367,139 L90.633,139 C115.031,131.716 133.998,111.847 140,86.923 L140,86.923 L140,53.077 C133.998,28.153 115.031,8.284 90.633,1 L90.633,1" id="path-45"></path>
        <path d="M49.367,1 C24.969,8.284 6.002,28.153 0,53.077 L0,53.077 L0,86.923 C6.002,111.847 24.969,131.716 49.367,139 L49.367,139 L90.633,139 C115.031,131.716 133.998,111.847 140,86.923 L140,86.923 L140,53.077 C133.998,28.153 115.031,8.284 90.633,1 L90.633,1 L49.367,1 Z" id="path-47"></path>
        <path d="M61,6 C61,6.552 61.448,7 62,7 L62,7 C62.552,7 63,6.552 63,6 L63,6 C63,5.448 62.552,5 62,5 L62,5 C61.448,5 61,5.448 61,6 L61,6 Z" id="path-49"></path>
        <path d="M131,51 C131,51.552 131.448,52 132,52 L132,52 C132.552,52 133,51.552 133,51 L133,51 C133,50.448 132.552,50 132,50 L132,50 C131.448,50 131,50.448 131,51 L131,51 Z" id="path-51"></path>
        <path d="M78,135.001 C78,135.552 78.448,136.001 79,136.001 L79,136.001 C79.552,136.001 80,135.552 80,135.001 L80,135.001 C80,134.448 79.552,134.001 79,134.001 L79,134.001 C78.448,134.001 78,134.448 78,135.001 L78,135.001 Z" id="path-53"></path>
        <path d="M7,90 C7,90.552 7.448,91 8,91 L8,91 C8.552,91 9,90.552 9,90 L9,90 C9,89.448 8.552,89 8,89 L8,89 C7.448,89 7,89.448 7,90 L7,90 Z" id="path-55"></path>
    </defs>
    <g id="Page-1" stroke="none" stroke-width="1" fill="none" fill-rule="evenodd">
        <g id="Desktop-HD-Copy-9" transform="translate(-749.000000, -82.000000)">
            <g id="Group-86" transform="translate(749.000000, 82.000000)">
                <mask id="mask-2" fill="white">
                    <use xlink:href="#path-1"></use>
                </mask>
                <g id="Clip-2"></g>
                <path d="M130.4957,68.7358 C130.5417,69.9118 130.8397,71.0318 131.3477,71.9688 C132.1337,72.7648 133.0597,73.1958 134.0127,73.2208 C134.9657,73.2328 135.9017,72.8228 136.6707,72.0498 C137.7997,70.9258 138.5087,69.0608 138.502738,67.1278 L138.4977,65.4888 L130.4727,65.5138 C130.4797,68.2598 130.4807,68.4418 130.4957,68.7358 L130.4957,68.7358 Z M139.3757,64.0858 L139.3867,67.5448 C139.3887,68.1618 139.4037,68.7918 139.3357,69.3938 C138.9397,72.5898 136.8047,74.7118 134.5627,74.4238 C133.0627,74.2748 132.2197,73.3388 131.1787,71.8298 C130.2077,70.4878 129.6427,69.2848 129.5817,67.4218 L129.5707,64.1158 L139.3757,64.0858 Z" id="Fill-1" fill="#F9F4EC" mask="url(#mask-2)"></path>
                <mask id="mask-4" fill="white">
                    <use xlink:href="#path-3"></use>
                </mask>
                <g id="Clip-5"></g>
                <path d="M130.5494,86.0668 L137.4454,84.4438 L131.9824,79.9428 L130.5494,86.0668 Z M138.0164,83.9728 L137.7334,85.9208 L126.8924,88.4768 L127.2754,86.8398 L129.5774,86.2858 L131.2104,79.3018 L129.3944,77.7838 L129.5754,77.0058 L138.0164,83.9728 Z" id="Fill-4" fill="#F9F4EC" mask="url(#mask-4)"></path>
                <mask id="mask-6" fill="white">
                    <use xlink:href="#path-5"></use>
                </mask>
                <g id="Clip-8"></g>
                <polygon id="Fill-7" fill="#F9F4EC" mask="url(#mask-6)" points="134.6119 95.998 133.6139 98.005 124.5149 99.877 131.0619 103.134 130.4389 104.389 121.6599 100.022 122.2829 98.767 132.7339 96.628 125.2089 92.885 125.8329 91.631"></polygon>
                <mask id="mask-8" fill="white">
                    <use xlink:href="#path-7"></use>
                </mask>
                <g id="Clip-11"></g>
                <polygon id="Fill-10" fill="#F9F4EC" mask="url(#mask-8)" points="127.5309 109.4516 126.7149 110.5886 118.7539 104.8646 119.5699 103.7266"></polygon>
                <mask id="mask-10" fill="white">
                    <use xlink:href="#path-9"></use>
                </mask>
                <g id="Clip-14"></g>
                <polygon id="Fill-13" fill="#F9F4EC" mask="url(#mask-10)" points="123.0748 115.1064 116.9088 121.4004 116.2688 120.7734 121.4548 115.4794 118.9128 112.9894 114.8248 117.1614 114.1838 116.5344 118.2718 112.3614 115.7208 109.8624 110.5348 115.1564 109.9048 114.5384 116.0708 108.2444"></polygon>
                <mask id="mask-12" fill="white">
                    <use xlink:href="#path-11"></use>
                </mask>
                <g id="Clip-17"></g>
                <polygon id="Fill-16" fill="#F9F4EC" mask="url(#mask-12)" points="112.5485 125.1528 111.3835 125.9298 106.4305 118.5078 100.7565 122.2958 101.0815 121.0168 107.1055 116.9968"></polygon>
                <mask id="mask-14" fill="white">
                    <use xlink:href="#path-13"></use>
                </mask>
                <g id="Clip-20"></g>
                <path d="M90.8365,129.0698 L96.0565,133.8618 L96.7065,126.8128 L90.8365,129.0698 Z M96.7655,134.0688 L94.9955,134.9298 L86.7875,127.4008 L88.3565,126.7978 L90.1085,128.3888 L96.8025,125.8148 L97.0375,123.4588 L97.7825,123.1728 L96.7655,134.0688 Z" id="Fill-19" fill="#F9F4EC" mask="url(#mask-14)"></path>
                <mask id="mask-16" fill="white">
                    <use xlink:href="#path-15"></use>
                </mask>
                <g id="Clip-23"></g>
                <path d="M9.61,73.8051 C9.515,72.6321 9.172,71.5261 8.626,70.6111 C7.806,69.8481 6.864,69.4551 5.911,69.4701 C4.959,69.4981 4.039,69.9471 3.303,70.7501 C2.221,71.9211 1.59,73.8141 1.677,75.7441 L1.751,77.3821 L9.768,77.0241 C9.645,74.2811 9.637,74.0991 9.61,73.8051 L9.61,73.8051 Z M0.93,78.8211 L0.775,75.3651 C0.748,74.7481 0.707,74.1191 0.75,73.5151 C1.012,70.3061 3.059,68.0971 5.311,68.2911 C6.815,68.3771 7.697,69.2781 8.799,70.7421 C9.826,72.0431 10.44,73.2221 10.578,75.0801 L10.726,78.3831 L0.93,78.8211 Z" id="Fill-22" fill="#F9F4EC" mask="url(#mask-16)"></path>
                <mask id="mask-18" fill="white">
                    <use xlink:href="#path-17"></use>
                </mask>
                <g id="Clip-26"></g>
                <path d="M8.8297,56.4931 L2.0077,58.4061 L7.6567,62.6721 L8.8297,56.4931 Z M1.4577,58.9011 L1.6577,56.9431 L12.3817,53.9311 L12.0677,55.5821 L9.7917,56.2341 L8.4537,63.2801 L10.3337,64.7201 L10.1847,65.5041 L1.4577,58.9011 Z" id="Fill-25" fill="#F9F4EC" mask="url(#mask-18)"></path>
                <mask id="mask-20" fill="white">
                    <use xlink:href="#path-19"></use>
                </mask>
                <g id="Clip-29"></g>
                <polygon id="Fill-28" fill="#F9F4EC" mask="url(#mask-20)" points="4.3492 46.7495 5.2612 44.7025 14.2732 42.4455 7.5932 39.4695 8.1632 38.1895 17.1202 42.1815 16.5502 43.4605 6.1992 46.0405 13.8762 49.4615 13.3062 50.7415"></polygon>
                <mask id="mask-22" fill="white">
                    <use xlink:href="#path-21"></use>
                </mask>
                <g id="Clip-32"></g>
                <polygon id="Fill-31" fill="#F9F4EC" mask="url(#mask-22)" points="10.861 32.998 11.63 31.828 19.824 37.213 19.054 38.383"></polygon>
                <mask id="mask-24" fill="white">
                    <use xlink:href="#path-23"></use>
                </mask>
                <g id="Clip-35"></g>
                <polygon id="Fill-34" fill="#F9F4EC" mask="url(#mask-24)" points="15.0758 27.1645 20.9718 20.6185 21.6378 21.2175 16.6788 26.7235 19.3228 29.1055 23.2328 24.7655 23.8988 25.3655 19.9888 29.7055 22.6418 32.0955 27.6018 26.5895 28.2588 27.1805 22.3618 33.7265"></polygon>
                <mask id="mask-26" fill="white">
                    <use xlink:href="#path-25"></use>
                </mask>
                <g id="Clip-38"></g>
                <polygon id="Fill-37" fill="#F9F4EC" mask="url(#mask-26)" points="25.1744 16.684 26.3054 15.858 31.5654 23.066 37.0754 19.044 36.8044 20.335 30.9554 24.604"></polygon>
                <mask id="mask-28" fill="white">
                    <use xlink:href="#path-27"></use>
                </mask>
                <g id="Clip-41"></g>
                <path d="M46.6862,11.8666 L41.2692,7.2996 L40.9162,14.3696 L46.6862,11.8666 Z M40.5512,7.1226 L42.2842,6.1876 L50.8022,13.3646 L49.2602,14.0336 L47.4412,12.5156 L40.8622,15.3706 L40.7272,17.7346 L39.9952,18.0536 L40.5512,7.1226 Z" id="Fill-40" fill="#F9F4EC" mask="url(#mask-28)"></path>
                <mask id="mask-30" fill="white">
                    <use xlink:href="#path-29"></use>
                </mask>
                <g id="Clip-44"></g>
                <path d="M66.5797,132.4555 L65.1837,133.1655 C65.4057,131.6845 63.9587,130.3895 61.8847,129.8635 C60.6987,129.5575 59.3777,129.4855 58.2567,129.7835 C57.3927,130.7165 57.6967,131.7965 59.0487,132.6085 C60.0227,133.1945 60.5057,133.2825 62.9857,134.2085 C64.2837,134.7165 65.4037,135.2675 65.5647,136.0845 C65.7067,136.7445 65.2357,137.3235 64.4157,137.7805 C64.0927,137.9585 62.9747,138.5125 62.8077,138.5875 C62.0307,138.8525 61.2217,138.9575 60.3367,138.9085 C57.8767,138.7785 55.8307,137.5065 56.0637,135.9555 L57.4587,135.2605 C57.3957,135.6755 57.5017,136.1015 57.7817,136.4985 C58.3407,137.3045 59.4517,137.8265 60.5787,138.0525 C61.6227,138.2675 62.7547,138.2815 63.7267,138.0315 C64.1987,137.5355 64.3567,136.9515 64.0287,136.4055 C63.5897,135.6595 62.1837,135.1215 60.7707,134.6115 C59.0887,134.0315 57.7617,133.5345 56.9777,132.8075 C56.1997,132.0525 56.2197,131.0775 56.8597,130.4935 C57.1777,130.1735 58.2477,129.6545 59.2047,129.2195 C60.2587,128.8095 61.5617,128.8095 62.7607,129.0315 C65.1797,129.5245 66.7947,130.8435 66.5797,132.4555" id="Fill-43" fill="#F9F4EC" mask="url(#mask-30)"></path>
                <mask id="mask-32" fill="white">
                    <use xlink:href="#path-31"></use>
                </mask>
                <g id="Clip-47"></g>
                <polygon id="Fill-46" fill="#F9F4EC" mask="url(#mask-32)" points="50.2682 136.9213 48.9332 136.4973 51.9042 127.1513 53.2382 127.5763"></polygon>
                <mask id="mask-34" fill="white">
                    <use xlink:href="#path-33"></use>
                </mask>
                <g id="Clip-50"></g>
                <polygon id="Fill-49" fill="#F9F4EC" mask="url(#mask-34)" points="43.3121 134.2797 41.5951 133.3627 41.7441 124.1987 34.2081 129.4147 32.8981 128.7147 37.5201 120.0657 38.7551 120.7257 34.7741 128.1757 41.7611 123.3337 43.2771 123.1427 43.1331 131.6427 46.6991 124.9717 47.9341 125.6327"></polygon>
                <mask id="mask-36" fill="white">
                    <use xlink:href="#path-35"></use>
                </mask>
                <g id="Clip-53"></g>
                <path d="M25.0631,111.433 L25.0531,111.444 C24.0131,111.433 23.0781,111.756 22.3951,112.343 C20.9801,113.586 20.7421,115.771 21.7501,117.892 C22.7401,119.975 24.6501,121.605 26.8021,122.240001 C28.4351,122.241 29.7101,121.505 30.3321,120.215 C31.2771,118.247 30.5031,115.456 28.3761,113.405 C27.4001,112.462 26.2571,111.788 25.0631,111.433 M31.7661,120.685 C30.6131,122.667 27.4471,122.863 24.7931,121.861 C23.6361,121.445 22.5031,120.683 21.5851,119.699 C19.7771,117.72 19.1171,115.175 19.9351,113.338 C21.1641,110.513 26.8321,110.65 29.9061,113.616 C32.1851,115.814 32.8731,118.773 31.7661,120.685" id="Fill-52" fill="#F9F4EC" mask="url(#mask-36)"></path>
                <mask id="mask-38" fill="white">
                    <use xlink:href="#path-37"></use>
                </mask>
                <g id="Clip-56"></g>
                <polygon id="Fill-55" fill="#F9F4EC" mask="url(#mask-38)" points="13.5387 110.7475 12.3787 108.8295 15.6657 100.1425 9.4107 103.9295 8.6847 102.7305 17.0727 97.6515 17.7987 98.8505 14.0127 108.8235 21.2007 104.4705 21.9267 105.6675"></polygon>
                <mask id="mask-40" fill="white">
                    <use xlink:href="#path-39"></use>
                </mask>
                <g id="Clip-59"></g>
                <path d="M73.9586,7.5746 L75.3616,6.8776 C75.1246,8.3576 76.5616,9.6656 78.6296,10.2086 C79.8126,10.5276 81.1336,10.6096 82.2576,10.3216 C83.1296,9.3966 82.8346,8.3146 81.4906,7.4896 C80.5216,6.8946 80.0406,6.8036 77.5676,5.8546 C76.2746,5.3356 75.1586,4.7736 75.0066,3.9546 C74.8706,3.2956 75.3466,2.7196 76.1706,2.2686 C76.4956,2.0946 77.6186,1.5506 77.7866,1.4776 C78.5646,1.2196 79.3756,1.1216 80.2596,1.1786 C82.7186,1.3306 84.7526,2.6216 84.5046,4.1706 L83.1046,4.8536 C83.1716,4.4386 83.0686,4.0116 82.7926,3.6126 C82.2416,2.8016 81.1356,2.2676 80.0096,2.0326 C78.9676,1.8086 77.8366,1.7836 76.8606,2.0246 C76.3856,2.5166 76.2216,3.0996 76.5446,3.6476 C76.9786,4.3986 78.3796,4.9496 79.7856,5.4716 C81.4636,6.0666 82.7866,6.5766 83.5626,7.3096 C84.3346,8.0726 84.3056,9.0476 83.6596,9.6246 C83.3396,9.9416 82.2656,10.4506 81.3036,10.8776 C80.2466,11.2766 78.9426,11.2666 77.7466,11.0326 C75.3316,10.5186 73.7296,9.1836 73.9586,7.5746" id="Fill-58" fill="#F9F4EC" mask="url(#mask-40)"></path>
                <mask id="mask-42" fill="white">
                    <use xlink:href="#path-41"></use>
                </mask>
                <g id="Clip-62"></g>
                <polygon id="Fill-61" fill="#F9F4EC" mask="url(#mask-42)" points="90.3248 3.2558 91.6558 3.6928 88.6018 13.0108 87.2718 12.5738"></polygon>
                <mask id="mask-44" fill="white">
                    <use xlink:href="#path-43"></use>
                </mask>
                <g id="Clip-65"></g>
                <polygon id="Fill-64" fill="#F9F4EC" mask="url(#mask-44)" points="97.2506 5.957 98.9596 6.89 98.7296 16.052 106.3126 10.902 107.6156 11.613 102.9186 20.221 101.6886 19.55 105.7346 12.136 98.7056 16.916 97.1886 17.094 97.4056 8.595 93.7826 15.235 92.5536 14.564"></polygon>
                <mask id="mask-46" fill="white">
                    <use xlink:href="#path-45"></use>
                </mask>
                <g id="Clip-68"></g>
                <path d="M115.2936,28.9555 L115.3036,28.9455 C116.3436,28.9655 117.2806,28.6505 117.9686,28.0695 C119.3946,26.8385 119.6506,24.6565 118.6596,22.5255 C117.6896,20.4345 115.7936,18.7875 113.6476,18.1355 C112.0136,18.1215 110.7316,18.8455 110.1006,20.1295 C109.1376,22.0895 109.8866,24.8865 111.9956,26.9565 C112.9656,27.9075 114.1016,28.5905 115.2936,28.9555 M108.6696,19.6465 C109.8396,17.6755 113.0076,17.5065 115.6516,18.5315 C116.8056,18.9575 117.9316,19.7285 118.8426,20.7215 C120.6346,22.7155 121.2716,25.2655 120.4376,27.0955 C119.1856,29.9105 113.5176,29.7255 110.4686,26.7325 C108.2096,24.5145 107.5476,21.5495 108.6696,19.6465" id="Fill-67" fill="#F9F4EC" mask="url(#mask-46)"></path>
                <mask id="mask-48" fill="white">
                    <use xlink:href="#path-47"></use>
                </mask>
                <g id="Clip-71"></g>
                <polygon id="Fill-70" fill="#F9F4EC" mask="url(#mask-48)" points="126.8102 29.7426 127.9552 31.6696 124.5922 40.3286 130.8802 36.5956 131.5952 37.7996 123.1642 42.8056 122.4492 41.6016 126.3212 31.6616 119.0942 35.9526 118.3792 34.7486"></polygon>
                <mask id="mask-50" fill="white">
                    <use xlink:href="#path-49"></use>
                </mask>
                <g id="Clip-75"></g>
                <polygon id="Fill-74" fill="#F9F4EC" mask="url(#mask-50)" points="56 12 68 12 68 0 56 0"></polygon>
                <mask id="mask-52" fill="white">
                    <use xlink:href="#path-51"></use>
                </mask>
                <g id="Clip-78"></g>
                <polygon id="Fill-77" fill="#F9F4EC" mask="url(#mask-52)" points="126 57 138 57 138 45 126 45"></polygon>
                <mask id="mask-54" fill="white">
                    <use xlink:href="#path-53"></use>
                </mask>
                <g id="Clip-81"></g>
                <polygon id="Fill-80" fill="#F9F4EC" mask="url(#mask-54)" points="73 141 85 141 85 129 73 129"></polygon>
                <mask id="mask-56" fill="white">
                    <use xlink:href="#path-55"></use>
                </mask>
                <g id="Clip-84"></g>
                <polygon id="Fill-83" fill="#F9F4EC" mask="url(#mask-56)" points="2 96 14 96 14 84 2 84"></polygon>
            </g>
        </g>
    </g>
</svg>